<svg width="242" height="70" viewBox="0 0 242 70" fill="none" xmlns="http://www.w3.org/2000/svg">
<path d="M54.8022 41.0389C38.8978 51.2105 27.5615 60.3814 20.3398 66.8499H35.1214C41.3597 61.8216 49.3415 55.918 59.1505 49.5925L67.9134 66.8499H80.5086L68.7189 43.6437C72.4396 41.4189 76.373 39.1628 80.5295 36.8893V26.0969C74.7654 29.1306 69.3989 32.1539 64.395 35.1214C61.023 37.1299 57.8324 39.1001 54.8022 41.0389Z" fill="black"/>
<path d="M23.7362 44.9199L40.2578 12.3964L44.9339 21.6684C47.9676 19.7192 51.1652 17.749 54.5302 15.7544L46.5554 0H33.9602L0 66.8499H12.494C22.1775 57.7697 44.369 39.2186 80.533 20.971V10.3704C55.5205 22.6029 36.8126 34.9435 23.7362 44.9199Z" fill="black"/>
<path d="M174.749 28.2833C174.23 27.4429 173.55 26.6862 172.723 26.0376C173.441 25.4204 174.031 24.7091 174.474 23.9245C175.206 22.6238 175.579 21.1349 175.579 19.4925C175.579 17.728 175.154 16.1135 174.31 14.6943C173.462 13.2681 172.217 12.1244 170.61 11.3014C169.037 10.4994 167.154 10.0914 165.02 10.0914H144.848V42.6464H165.062C167.287 42.6464 169.24 42.2244 170.865 41.3945C172.528 40.5472 173.818 39.3685 174.697 37.897C175.569 36.4325 176.008 34.7552 176.008 32.9036C176.008 31.1915 175.582 29.6362 174.749 28.2833ZM151.606 23.248V16.5076H164.801C167.583 16.5076 168.772 17.463 168.772 19.7052C168.772 20.9082 168.472 21.7765 167.852 22.3553C167.217 22.9481 166.188 23.248 164.801 23.248H151.606ZM169.034 32.7327C169.034 33.9183 168.72 34.7692 168.078 35.3306C167.395 35.9269 166.307 36.2302 164.846 36.2302H151.606V29.4445H164.846C166.321 29.4445 167.416 29.7339 168.103 30.3023C168.727 30.8253 169.034 31.6204 169.034 32.7327Z" fill="black"/>
<path d="M239.768 17.9059C238.286 15.3604 236.222 13.3274 233.635 11.8629C231.051 10.4018 228.17 9.66254 225.074 9.66254C221.978 9.66254 219.097 10.4018 216.513 11.8629C213.922 13.3274 211.862 15.3604 210.38 17.9059C208.898 20.4514 208.148 23.2968 208.148 26.3689C208.148 29.441 208.898 32.2899 210.38 34.8354C211.862 37.3809 213.922 39.4139 216.513 40.875C219.097 42.336 221.978 43.0753 225.074 43.0753C228.17 43.0753 231.051 42.3325 233.635 40.875C236.222 39.4139 238.286 37.3809 239.768 34.8354C241.247 32.2899 242 29.441 242 26.3689C242 23.2968 241.25 20.4479 239.768 17.9059ZM235.026 26.3689C235.026 28.238 234.58 29.964 233.704 31.4983C232.829 33.0326 231.619 34.2636 230.109 35.1562C228.603 36.0419 226.912 36.4883 225.077 36.4883C223.243 36.4883 221.552 36.0384 220.046 35.1527C218.536 34.2635 217.326 33.0361 216.447 31.4983C215.572 29.9606 215.126 28.2345 215.126 26.3689C215.126 24.5033 215.568 22.7773 216.447 21.2395C217.326 19.7017 218.536 18.4708 220.042 17.5851C221.549 16.6994 223.243 16.2495 225.074 16.2495C226.905 16.2495 228.596 16.6994 230.102 17.5851C231.616 18.4743 232.826 19.7052 233.701 21.2395C234.58 22.7773 235.026 24.5033 235.026 26.3689Z" fill="black"/>
<path d="M132.894 52.4659L127.137 57.7975V52.4659H123.661V66.9092H127.137V62.1284L128.141 61.2079L132.804 66.8289L132.866 66.9092H137.407L130.67 58.8437L137.549 52.4659H132.894Z" fill="black"/>
<path d="M172.019 52.4659H160.696V57.8673C160.696 59.7468 160.616 61.166 160.456 62.0866C160.344 62.7387 160.198 63.2722 160.03 63.6767H158.36V69.6918H161.593V66.9092H170.275V69.6918H173.508V63.6767H172.022V52.4659H172.019ZM168.713 55.6983V63.6767H163.427C163.803 62.2086 163.985 60.2803 163.985 57.7941V55.6983H168.713Z" fill="black"/>
<path d="M177.975 66.9092H189.712V63.7116H181.28V61.2846H189.158V58.0904H181.28V55.6635H189.712V52.4659H177.975V66.9092Z" fill="black"/>
<path d="M219.596 52.4659H216.29V66.9057H219.596V52.4659Z" fill="black"/>
<path d="M227.145 53.0412C226.399 53.4353 225.82 53.9862 225.423 54.6801C225.032 55.3636 224.837 56.1412 224.837 56.9955C224.837 58.1463 225.189 59.1435 225.879 59.9595C226.34 60.5 226.922 60.908 227.616 61.1695L223.055 66.9057H227.177L231.389 61.5252H234.381V66.9057H237.687V52.4659H229.715C228.735 52.4659 227.871 52.6611 227.145 53.0412ZM234.381 55.6077V58.3869H229.827C229.272 58.3869 228.861 58.2648 228.596 58.0277C228.352 57.8045 228.23 57.4663 228.23 56.9955C228.23 56.5248 228.348 56.1865 228.596 55.9634C228.857 55.7262 229.272 55.6042 229.823 55.6042H234.381V55.6077Z" fill="black"/>
<path d="M202.649 62.3202L197.987 52.4659H194.182V66.9092H197.492V58.7774L201.387 66.9092H203.838L207.733 58.7251V66.9092H211.039V52.4659H207.311L202.649 62.3202Z" fill="black"/>
<path d="M112.164 38.699C114.919 37.2728 126.095 31.6238 129.84 29.7687L135.314 42.4441L135.321 42.4406L135.384 42.5906H142.954L128.961 10.2239L128.905 10.0949H116.537L102.962 42.5906H110.528L112.164 38.699ZM121.307 16.8981H124.285L127.447 24.2244C126.101 24.852 118.109 28.5622 116.007 29.5421L121.307 16.8981Z" fill="black"/>
<path d="M109.022 52.4659L102.969 66.9057H106.55L107.279 65.1726C108.513 64.538 113.144 62.2052 114.877 61.3473L117.286 66.9057H120.871L114.605 52.4659H109.022ZM113.73 58.7007C113.053 59.0145 110.71 60.099 109.102 60.8417L111.275 55.6809H112.422L113.73 58.7007Z" fill="black"/>
<path d="M144.499 52.4659L138.446 66.9057H142.027L142.756 65.1726C143.99 64.538 148.621 62.2052 150.354 61.3473L152.763 66.9057H156.348L150.082 52.4659H144.499ZM149.207 58.7007C148.53 59.0145 146.187 60.099 144.579 60.8417L146.752 55.6809H147.899L149.207 58.7007Z" fill="black"/>
<path d="M189.559 42.6498H196.32V16.5076H208.636V10.0914H177.246V16.5076H189.559V42.6498Z" fill="black"/>
</svg>
